<svg xmlns="http://www.w3.org/2000/svg" width="1200" height="360" viewBox="0 0 1200 360" role="img" aria-labelledby="title desc">
  <title id="title">M0KA907 terminal profile banner</title>
  <desc id="desc">A dark CRT-inspired banner with punk patches, terminal text, and 80s computer zine styling.</desc>
  <defs>
    <linearGradient id="bg" x1="0" x2="1" y1="0" y2="1">
      <stop offset="0" stop-color="#050509"/>
      <stop offset="0.52" stop-color="#11111f"/>
      <stop offset="1" stop-color="#26100d"/>
    </linearGradient>
    <linearGradient id="amber" x1="0" x2="1">
      <stop offset="0" stop-color="#fbbf24"/>
      <stop offset="1" stop-color="#fb7185"/>
    </linearGradient>
    <filter id="glow" x="-20%" y="-20%" width="140%" height="140%">
      <feGaussianBlur stdDeviation="2.5" result="blur"/>
      <feMerge>
        <feMergeNode in="blur"/>
        <feMergeNode in="SourceGraphic"/>
      </feMerge>
    </filter>
    <filter id="rough">
      <feTurbulence type="fractalNoise" baseFrequency="0.75" numOctaves="2" stitchTiles="stitch"/>
      <feColorMatrix type="saturate" values="0"/>
      <feComponentTransfer>
        <feFuncA type="table" tableValues="0 0.12"/>
      </feComponentTransfer>
      <feBlend mode="screen" in2="SourceGraphic"/>
    </filter>
    <pattern id="scan" width="8" height="8" patternUnits="userSpaceOnUse">
      <rect width="8" height="8" fill="transparent"/>
      <rect y="0" width="8" height="1" fill="#ffffff" opacity="0.08"/>
    </pattern>
    <pattern id="grid" width="34" height="34" patternUnits="userSpaceOnUse">
      <path d="M34 0H0V34" fill="none" stroke="#8b5cf6" stroke-width="0.6" opacity="0.16"/>
    </pattern>
    <style>
      .mono{font-family:ui-monospace,SFMono-Regular,Menlo,Consolas,Liberation Mono,monospace}
      .label{font-size:20px;letter-spacing:3px}
      .tiny{font-size:15px;letter-spacing:1.5px}
      .term{font-size:22px;letter-spacing:1px}
      .big{font-size:86px;font-weight:900;letter-spacing:7px}
    </style>
  </defs>

  <rect width="1200" height="360" fill="url(#bg)"/>
  <rect width="1200" height="360" fill="url(#grid)"/>
  <rect width="1200" height="360" fill="url(#scan)"/>
  <rect x="28" y="24" width="1144" height="312" rx="24" fill="#08080d" opacity="0.86" stroke="#f59e0b" stroke-width="2"/>
  <path d="M48 58H1152M48 296H1152" stroke="#eab308" stroke-width="1.5" opacity="0.35"/>
  <path d="M88 32l-28 28 28 28M1112 32l28 28-28 28M88 328l-28-28 28-28M1112 328l28-28-28-28" fill="none" stroke="#f97316" stroke-width="4" opacity="0.55"/>

  <g transform="translate(76 86)">
    <text class="mono label" x="0" y="0" fill="#a7f3d0">BOOTING /HOME/M0KA</text>
    <text class="mono big" x="0" y="104" fill="url(#amber)" filter="url(#glow)">M0KA907</text>
    <text class="mono term" x="4" y="150" fill="#e5e7eb">arch linux // static web // shell tools // mods // repairs</text>
    <text class="mono tiny" x="4" y="188" fill="#fb7185">NO CLOUD KINGS · NO USELESS PANELS · COMMIT THE FIX · KEEP THE FALLBACK</text>
  </g>

  <g transform="translate(838 78) rotate(-3)">
    <rect x="0" y="0" width="250" height="70" rx="10" fill="#111827" stroke="#f8fafc" stroke-width="3"/>
    <path d="M10 12h230M18 58h214" stroke="#f8fafc" opacity="0.2"/>
    <text class="mono" x="22" y="43" fill="#f8fafc" font-size="25" font-weight="800">LOCAL FIRST</text>
  </g>

  <g transform="translate(854 165) rotate(4)">
    <rect x="0" y="0" width="230" height="66" rx="7" fill="#1f0a0a" stroke="#fb7185" stroke-width="3"/>
    <text class="mono" x="22" y="41" fill="#fbbf24" font-size="24" font-weight="900">DIY OR DEBUG</text>
  </g>

  <g transform="translate(884 244) rotate(-5)">
    <rect x="0" y="0" width="190" height="54" rx="6" fill="#020617" stroke="#a78bfa" stroke-width="3"/>
    <text class="mono" x="18" y="35" fill="#a7f3d0" font-size="20" font-weight="900">PATCHED DENIM</text>
  </g>

  <g transform="translate(710 92)" opacity="0.78">
    <path d="M40 0l14 29 32 4-23 22 6 32-29-15-29 15 6-32L-6 33l32-4z" fill="none" stroke="#e5e7eb" stroke-width="2"/>
    <path d="M22 104h74M32 124h54M42 144h34" stroke="#e5e7eb" stroke-width="3"/>
    <circle cx="59" cy="67" r="28" fill="none" stroke="#e5e7eb" stroke-width="3"/>
    <circle cx="49" cy="61" r="4" fill="#e5e7eb"/>
    <circle cx="69" cy="61" r="4" fill="#e5e7eb"/>
    <path d="M49 77h20" stroke="#e5e7eb" stroke-width="3"/>
  </g>

  <g class="mono tiny" fill="#f8fafc" opacity="0.5">
    <text x="78" y="318">C:\\M0KA&gt; repair.exe --fast --weird --documented</text>
    <text x="768" y="318">STATUS: loud laptop stickers / quiet useful code</text>
  </g>
  <rect width="1200" height="360" filter="url(#rough)" opacity="0.7"/>
</svg>
