<svg xmlns="http://www.w3.org/2000/svg" width="900" height="210" viewBox="0 0 900 210" role="img" aria-label="M0KA907">
  <defs>
    <linearGradient id="bg" x1="0" y1="0" x2="1" y2="1">
      <stop offset="0" stop-color="#211631"/>
      <stop offset="0.5" stop-color="#09070d"/>
      <stop offset="1" stop-color="#1a1228"/>
    </linearGradient>
    <linearGradient id="edge" x1="0" y1="0" x2="1" y2="0">
      <stop offset="0" stop-color="#f2ebff"/>
      <stop offset="0.5" stop-color="#b892ff"/>
      <stop offset="1" stop-color="#8b5cf6"/>
    </linearGradient>
    <linearGradient id="word" x1="0" y1="0" x2="1" y2="0">
      <stop offset="0" stop-color="#ffffff"/>
      <stop offset="0.5" stop-color="#efe4ff"/>
      <stop offset="1" stop-color="#cab3ff"/>
    </linearGradient>
  </defs>
  <rect width="900" height="210" rx="30" fill="#050409"/>
  <path d="M40 16H830L884 70V160L846 198H56L18 160V44Z" fill="#000000" opacity="0.55"/>
  <path d="M30 6H840L896 62V164L856 204H44L6 166V36Z" fill="url(#bg)" stroke="url(#edge)" stroke-width="5"/>
  <path d="M52 26H822L872 76V150L840 184H62L28 152V54Z" fill="#140f1e" stroke="#f2ebff" stroke-opacity="0.16" stroke-width="2"/>
  <path d="M64 42H810" stroke="#ffffff" stroke-opacity="0.10" stroke-width="2"/>
  <path d="M64 171H836" stroke="#000000" stroke-opacity="0.38" stroke-width="3"/>
  <path d="M52 26H210M700 26H822M28 54V118M872 92V150M62 184H218M692 184H840" stroke="#b892ff" stroke-width="4" opacity="0.88"/>
  <path d="M52 26H132M758 26H822M28 136V152M758 184H840" stroke="#f2ebff" stroke-width="3" opacity="0.82"/>
  <path d="M38 150L64 184M836 38L862 64" stroke="#8b5cf6" stroke-width="4" opacity="0.95"/>
  <text x="450" y="132" text-anchor="middle" font-family="ui-monospace, SFMono-Regular, Menlo, Consolas, monospace" font-size="96" font-weight="900" letter-spacing="11" fill="#8b5cf6" opacity="0.35">M0KA907</text>
  <text x="454" y="135" text-anchor="middle" font-family="ui-monospace, SFMono-Regular, Menlo, Consolas, monospace" font-size="96" font-weight="900" letter-spacing="11" fill="#000000" opacity="0.45">M0KA907</text>
  <text x="450" y="132" text-anchor="middle" font-family="ui-monospace, SFMono-Regular, Menlo, Consolas, monospace" font-size="96" font-weight="900" letter-spacing="11" fill="url(#word)" stroke="#f8f3ff" stroke-width="0.9">M0KA907</text>
</svg>
